<?xml version="1.0" standalone="no"?><!DOCTYPE svg PUBLIC "-//W3C//DTD SVG 1.1//EN" "http://www.w3.org/Graphics/SVG/1.1/DTD/svg11.dtd"><svg t="1589035034476" class="icon" viewBox="0 0 1173 1024" version="1.1" xmlns="http://www.w3.org/2000/svg" p-id="3898" xmlns:xlink="http://www.w3.org/1999/xlink" width="229.1015625" height="200"><defs><style type="text/css"></style></defs><path d="M0.8 53.558158c67.147541 17.586261 134.295082 35.172521 201.442623 51.959406-0.799375 270.98829 0 541.976581 0 813.764247-67.147541 16.786885-134.295082 35.172521-202.241998 51.160031C1.599375 664.28103 0.8 358.919594 0.8 53.558158zM970.442467 0c67.147541 18.385636 135.094457 31.97502 202.241998 53.558158-0.799375 306.160812 0 612.321624 0 918.482435-67.147541 16.786885-134.295082 35.172521-201.442623 51.959407-1.598751-342.132709-0.799375-682.666667-0.799375-1024zM650.692272 377.30523c67.946916-16.786885 135.094457-34.373146 202.241998-51.160031 2.398126 179.859485 0 360.518345 1.598751 540.37783-67.946916-16.786885-135.893833-35.971897-203.840749-52.758782V377.30523zM318.951444 457.242779c67.946916 16.786885 135.094457 35.971897 203.041374 51.160031 0.799375 145.486339 0 290.972678 0.799376 436.459017-66.348165 19.185012-134.295082 31.175644-199.843872 52.758782-5.595628-10.391881-3.197502-23.181889-3.996878-34.373146V457.242779z" p-id="3899"></path></svg>